<svg width="70" height="63" viewBox="0 0 70 63" fill="none" xmlns="http://www.w3.org/2000/svg">
<path d="M68.3064 12.8423C67.2203 10.3292 65.6543 8.05187 63.696 6.13777C61.7361 4.21796 59.4255 2.69232 56.8896 1.6438C54.2601 0.552233 51.4398 -0.00649226 48.5924 5.69145e-05C44.5977 5.69145e-05 40.7003 1.09318 37.3133 3.15798C36.503 3.65191 35.7333 4.19443 35.004 4.78553C34.2748 4.19443 33.505 3.65191 32.6947 3.15798C29.3078 1.09318 25.4103 5.69145e-05 21.4156 5.69145e-05C18.5392 5.69145e-05 15.7518 0.55067 13.1184 1.6438C10.5741 2.69644 8.28104 4.21062 6.31206 6.13777C4.35117 8.04971 2.78475 10.3276 1.70158 12.8423C0.575297 15.4577 0 18.2351 0 21.0934C0 23.7898 0.550989 26.5995 1.64486 29.4578C2.56048 31.8465 3.87313 34.3243 5.5504 36.8263C8.20812 40.7859 11.8625 44.9155 16.4 49.1018C23.9194 56.0411 31.3659 60.8347 31.6819 61.029L33.6022 62.2598C34.453 62.8023 35.5469 62.8023 36.3977 62.2598L38.318 61.029C38.6341 60.8266 46.0724 56.0411 53.5999 49.1018C58.1374 44.9155 61.7918 40.7859 64.4495 36.8263C66.1268 34.3243 67.4475 31.8465 68.355 29.4578C69.4489 26.5995 69.9999 23.7898 69.9999 21.0934C70.008 18.2351 69.4327 15.4577 68.3064 12.8423V12.8423Z" fill="#F60000"/>
</svg>
