<svg width="30" height="30" viewBox="0 0 30 30" fill="none"
    xmlns="http://www.w3.org/2000/svg">
    <path d="M18.75 21.25C18.75 21.9404 18.1904 22.5 17.5 22.5H5C4.30964 22.5 3.75 21.9404 3.75 21.25V21.25C3.75 20.5596 4.30964 20 5 20H17.5C18.1904 20 18.75 20.5596 18.75 21.25V21.25ZM26.25 15C26.25 15.6904 25.6904 16.25 25 16.25H5C4.30964 16.25 3.75 15.6904 3.75 15V15C3.75 14.3096 4.30964 13.75 5 13.75H25C25.6904 13.75 26.25 14.3096 26.25 15V15ZM18.75 8.75C18.75 9.44036 18.1904 10 17.5 10H5C4.30964 10 3.75 9.44036 3.75 8.75V8.75C3.75 8.05964 4.30964 7.5 5 7.5H17.5C18.1904 7.5 18.75 8.05964 18.75 8.75V8.75Z" fill="white"/>
</svg>
