<svg width="12" height="12" viewBox="0 0 12 12" fill="none"
    xmlns="http://www.w3.org/2000/svg">
    <path d="M1.22704 3.96977C1.36768 3.82917 1.55841 3.75018 1.75729 3.75018C1.95616 3.75018 2.14689 3.82917 2.28753 3.96977L6.00003 7.68227L9.71252 3.96977C9.85398 3.83315 10.0434 3.75756 10.2401 3.75927C10.4367 3.76098 10.6248 3.83985 10.7639 3.97891C10.9029 4.11797 10.9818 4.30607 10.9835 4.50272C10.9852 4.69937 10.9096 4.88882 10.773 5.03027L6.53028 9.27302C6.38963 9.41363 6.1989 9.49261 6.00003 9.49261C5.80116 9.49261 5.61043 9.41363 5.46978 9.27302L1.22704 5.03027C1.08643 4.88963 1.00745 4.6989 1.00745 4.50002C1.00745 4.30115 1.08643 4.11042 1.22704 3.96977V3.96977Z" fill="white"/>
</svg>
