<svg xmlns="http://www.w3.org/2000/svg" className="h-5 w-5" fill="currentColor" viewBox="0 0 20 20"><path strokeLinecap="round" strokeLinejoin="round" d="M10,0.3c-5.4,0-9.8,4.4-9.8,9.8c0,4.6,3.2,8.5,7.5,9.5c0-0.1-0.1-0.3-0.1-0.5v-1.7c-0.4,0-1.1,0-1.2,0c-0.7,0-1.3-0.3-1.6-0.8c-0.3-0.6-0.4-1.5-1.2-2.1c-0.2-0.2-0.1-0.4,0.2-0.4c0.5,0.1,0.9,0.5,1.3,1c0.4,0.5,0.6,0.6,1.3,0.6c0.4,0,0.9,0,1.4-0.1c0.3-0.7,0.7-1.3,1.3-1.6c-3.3-0.3-4.8-2-4.8-4.2c0-1,0.4-1.9,1.1-2.7C5.1,6.6,4.8,5,5.4,4.4c1.5,0,2.4,1,2.6,1.2c0.7-0.3,1.5-0.4,2.4-0.4c0.9,0,1.7,0.1,2.4,0.4c0.2-0.3,1.1-1.2,2.6-1.2C16,5,15.7,6.6,15.5,7.4c0.7,0.8,1.1,1.7,1.1,2.6c0,2.2-1.6,3.8-4.8,4.2c0.9,0.5,1.6,1.8,1.6,2.8v2.2c0,0.1,0,0.1,0,0.2c3.8-1.3,6.6-5,6.6-9.3C19.8,4.7,15.4,0.3,10,0.3z"></path></svg>