<svg xmlns="http://www.w3.org/2000/svg" className="h-5 w-5" fill="currentColor" viewBox="0 0 20 20"><path strokeLinecap="round" strokeLinejoin="round" d="M17.4,1H2.6C1.7,1,1,1.7,1,2.6v14.7C1,18.3,1.7,19,2.6,19h14.7c0.9,0,1.6-0.7,1.6-1.6V2.6C19,1.7,18.3,1,17.4,1z M6.7,15.7H4.3V8h2.4V15.7z M5.5,6.9c-0.8,0-1.4-0.6-1.4-1.4S4.7,4,5.5,4c0.8,0,1.4,0.6,1.4,1.4C6.9,6.2,6.2,6.9,5.5,6.9z M15.7,15.7h-2.4V12c0-0.9,0-2.1-1.3-2.1c-1.3,0-1.4,1-1.4,2v3.8H8.2V8h2.3V9h0c0.3-0.6,1.1-1.3,2.3-1.3c2.4,0,2.9,1.6,2.9,3.7C15.7,11.5,15.7,15.7,15.7,15.7z"></path></svg>