<svg xmlns="http://www.w3.org/2000/svg" className="h-5 w-5" fill="currentColor" viewBox="0 0 20 20"><path strokeLinecap="round" strokeLinejoin="round" d="M19.3,4.2c-0.7,0.3-1.4,0.5-2.2,0.6c0.8-0.5,1.4-1.2,1.7-2.1c-0.7,0.4-1.6,0.8-2.4,0.9c-0.7-0.7-1.7-1.2-2.8-1.2c-2.1,0-3.8,1.7-3.8,3.8c0,0.3,0,0.6,0.1,0.9C6.7,7,3.9,5.4,2,3.1C1.7,3.7,1.5,4.4,1.5,5.1c0,1.3,0.7,2.5,1.7,3.2C2.5,8.2,2,8,1.4,7.8c0,0,0,0,0,0c0,1.9,1.3,3.4,3.1,3.7c-0.3,0.1-0.7,0.1-1,0.1c-0.2,0-0.5,0-0.7-0.1c0.5,1.5,1.9,2.6,3.6,2.7c-1.3,1-3,1.6-4.7,1.6c-0.3,0-0.6,0-0.9-0.1c1.7,1.1,3.7,1.7,5.9,1.7c7,0,10.9-5.8,10.9-10.9c0-0.2,0-0.3,0-0.5C18.1,5.7,18.8,5,19.3,4.2z"></path></svg>