{
  "accessors": [
    {
      "bufferView": 2,
      "componentType": 5126,
      "count": 24628,
      "max": [
        1.0,
        0.7736139893531799,
        0.6620010137557983
      ],
      "min": [
        -1.0,
        -0.7736139893531799,
        -0.6620010137557983
      ],
      "type": "VEC3"
    },
    {
      "bufferView": 2,
      "byteOffset": 295536,
      "componentType": 5126,
      "count": 24628,
      "max": [
        0.9999995231628418,
        1.0,
        1.0
      ],
      "min": [
        -1.0,
        -1.0,
        -1.0
      ],
      "type": "VEC3"
    },
    {
      "bufferView": 3,
      "componentType": 5126,
      "count": 24628,
      "max": [
        1.0,
        0.9974543452262878,
        1.0,
        1.0
      ],
      "min": [
        -0.9999971389770508,
        -1.0,
        -1.0,
        -1.0
      ],
      "type": "VEC4"
    },
    {
      "bufferView": 1,
      "componentType": 5126,
      "count": 24628,
      "max": [
        0.9994660019874573,
        0.9704359769821167
      ],
      "min": [
        0.0005338839837349951,
        0.0005338839837349951
      ],
      "type": "VEC2"
    },
    {
      "bufferView": 0,
      "componentType": 5125,
      "count": 122700,
      "type": "SCALAR"
    },
    {
      "bufferView": 2,
      "byteOffset": 591072,
      "componentType": 5126,
      "count": 10497,
      "max": [
        0.9304519891738892,
        0.6482530236244202,
        0.5232340097427368
      ],
      "min": [
        -0.9519540071487427,
        -0.6936439871788025,
        -0.5028600096702576
      ],
      "type": "VEC3"
    },
    {
      "bufferView": 2,
      "byteOffset": 717036,
      "componentType": 5126,
      "count": 10497,
      "max": [
        1.0,
        1.0,
        1.0
      ],
      "min": [
        -1.0,
        -1.0,
        -1.0
      ],
      "type": "VEC3"
    },
    {
      "bufferView": 3,
      "byteOffset": 394048,
      "componentType": 5126,
      "count": 10497,
      "max": [
        1.0,
        1.0,
        1.0,
        1.0
      ],
      "min": [
        -1.0,
        -1.0,
        -1.0,
        -1.0
      ],
      "type": "VEC4"
    },
    {
      "bufferView": 1,
      "byteOffset": 197024,
      "componentType": 5126,
      "count": 10497,
      "max": [
        0.9993789792060852,
        0.9755920171737671
      ],
      "min": [
        0.0006208149716258049,
        0.0006208149716258049
      ],
      "type": "VEC2"
    },
    {
      "bufferView": 0,
      "byteOffset": 490800,
      "componentType": 5125,
      "count": 46206,
      "type": "SCALAR"
    }
  ],
  "asset": {
    "extras": {
      "author": "Urpo (https://sketchfab.com/Urpo)",
      "license": "CC-BY-4.0 (http://creativecommons.org/licenses/by/4.0/)",
      "source": "https://sketchfab.com/3d-models/retro-computer-f844c0357d284fd8baa1435e9ff31bb2",
      "title": "Retro computer"
    },
    "generator": "Sketchfab-13.17.0",
    "version": "2.0"
  },
  "bufferViews": [
    {
      "buffer": 0,
      "byteLength": 675624,
      "name": "floatBufferViews",
      "target": 34963
    },
    {
      "buffer": 0,
      "byteLength": 281000,
      "byteOffset": 675624,
      "byteStride": 8,
      "name": "floatBufferViews",
      "target": 34962
    },
    {
      "buffer": 0,
      "byteLength": 843000,
      "byteOffset": 956624,
      "byteStride": 12,
      "name": "floatBufferViews",
      "target": 34962
    },
    {
      "buffer": 0,
      "byteLength": 562000,
      "byteOffset": 1799624,
      "byteStride": 16,
      "name": "floatBufferViews",
      "target": 34962
    }
  ],
  "buffers": [
    {
      "byteLength": 2361624,
      "uri": "scene.bin"
    }
  ],
  "images": [
    {
      "uri": "textures/Part1_baseColor.png"
    },
    {
      "uri": "textures/Part1_metallicRoughness.png"
    },
    {
      "uri": "textures/Part1_emissive.jpeg"
    },
    {
      "uri": "textures/Part1_normal.png"
    },
    {
      "uri": "textures/Part2_baseColor.png"
    },
    {
      "uri": "textures/Part2_metallicRoughness.png"
    },
    {
      "uri": "textures/Part2_emissive.jpeg"
    },
    {
      "uri": "textures/Part2_normal.png"
    }
  ],
  "materials": [
    {
      "alphaMode": "BLEND",
      "doubleSided": true,
      "emissiveFactor": [
        1.0,
        1.0,
        1.0
      ],
      "emissiveTexture": {
        "index": 2
      },
      "name": "Part1",
      "normalTexture": {
        "index": 3
      },
      "occlusionTexture": {
        "index": 1
      },
      "pbrMetallicRoughness": {
        "baseColorTexture": {
          "index": 0
        },
        "metallicRoughnessTexture": {
          "index": 1
        }
      }
    },
    {
      "alphaMode": "BLEND",
      "doubleSided": true,
      "emissiveFactor": [
        1.0,
        1.0,
        1.0
      ],
      "emissiveTexture": {
        "index": 6
      },
      "name": "Part2",
      "normalTexture": {
        "index": 7
      },
      "occlusionTexture": {
        "index": 5
      },
      "pbrMetallicRoughness": {
        "baseColorTexture": {
          "index": 4
        },
        "metallicRoughnessTexture": {
          "index": 5
        }
      }
    }
  ],
  "meshes": [
    {
      "name": "defaultMaterial",
      "primitives": [
        {
          "attributes": {
            "NORMAL": 1,
            "POSITION": 0,
            "TANGENT": 2,
            "TEXCOORD_0": 3
          },
          "indices": 4,
          "material": 1,
          "mode": 4
        }
      ]
    },
    {
      "name": "defaultMaterial",
      "primitives": [
        {
          "attributes": {
            "NORMAL": 6,
            "POSITION": 5,
            "TANGENT": 7,
            "TEXCOORD_0": 8
          },
          "indices": 9,
          "material": 0,
          "mode": 4
        }
      ]
    }
  ],
  "nodes": [
    {
      "children": [
        1
      ],
      "matrix": [
        1.0,
        0.0,
        0.0,
        0.0,
        0.0,
        2.220446049250313e-16,
        -1.0,
        0.0,
        0.0,
        1.0,
        2.220446049250313e-16,
        0.0,
        0.0,
        0.0,
        0.0,
        1.0
      ],
      "name": "Sketchfab_model"
    },
    {
      "children": [
        2,
        4
      ],
      "matrix": [
        1.0,
        0.0,
        0.0,
        0.0,
        0.0,
        -4.371139006309477e-08,
        0.999999999999999,
        0.0,
        0.0,
        -0.999999999999999,
        -4.371139006309477e-08,
        0.0,
        0.0,
        0.0,
        0.0,
        1.0
      ],
      "name": "Collada visual scene group"
    },
    {
      "children": [
        3
      ],
      "name": "Part2"
    },
    {
      "mesh": 0,
      "name": "defaultMaterial"
    },
    {
      "children": [
        5
      ],
      "name": "Part1"
    },
    {
      "mesh": 1,
      "name": "defaultMaterial"
    }
  ],
  "samplers": [
    {
      "magFilter": 9729,
      "minFilter": 9987,
      "wrapS": 10497,
      "wrapT": 10497
    }
  ],
  "scene": 0,
  "scenes": [
    {
      "name": "Sketchfab_Scene",
      "nodes": [
        0
      ]
    }
  ],
  "textures": [
    {
      "sampler": 0,
      "source": 0
    },
    {
      "sampler": 0,
      "source": 1
    },
    {
      "sampler": 0,
      "source": 2
    },
    {
      "sampler": 0,
      "source": 3
    },
    {
      "sampler": 0,
      "source": 4
    },
    {
      "sampler": 0,
      "source": 5
    },
    {
      "sampler": 0,
      "source": 6
    },
    {
      "sampler": 0,
      "source": 7
    }
  ]
}
