<?xml version="1.0" encoding="UTF-8"?>
<svg width="514px" height="514px" viewBox="0 0 514 514" version="1.1" xmlns="http://www.w3.org/2000/svg" xmlns:xlink="http://www.w3.org/1999/xlink">
    <title>javascript-circle@1.5x</title>
    <g id="Page-1" stroke="none" stroke-width="1" fill="none" fill-rule="evenodd">
        <g id="04" transform="translate(-644.000000, -174.000000)" fill-rule="nonzero">
            <g id="javascript-circle" transform="translate(644.000000, 174.000000)">
                <g id="group-javascript">
                    <rect id="Rectangle" fill="#CFCFCF" opacity="0.6" x="0" y="0" width="514" height="514"></rect>
                    <path d="M194,0 L226.008729,73.1417307 C226.730731,74.8635229 229.017069,75.491977 231.144394,74.5880361 L286.261467,51.0855732 C288.375899,50.1816323 289.506175,48.072437 288.779876,46.3506448 L268.155562,0 L194,0 Z" id="Path" fill="#070707" opacity="0.1"></path>
                    <path d="M283.779809,43.5267405 C284.506331,45.2382018 283.375708,47.3133487 281.260628,48.2332591 L226.126671,71.5947064 C224.011591,72.4932236 221.711656,71.847147 220.989433,70.1570789 L191,0 L265.178278,0 L283.779809,43.5267405 Z" id="Path" fill="#FFFFFF"></path>
                    <polygon id="Path" fill="#373737" points="279 36.5771028 218.669899 62 192 0.00426058274 263.271819 0"></polygon>
                    <polygon id="Path" fill="#494949" opacity="0.6" points="279 36.5771028 219 62 237.827055 0 263.357877 0"></polygon>
                    <path d="M256.950793,51.3898255 C257.021452,51.5559555 257.015818,51.740972 256.935158,51.9032818 C256.854498,52.0655916 256.705581,52.1915746 256.521885,52.2529088 L247.01727,55.9395635 C246.840496,56.0133805 246.638662,56.0198385 246.456634,55.9575018 C246.274606,55.8951652 246.127471,55.7691999 246.047936,55.6076084 L246.047936,55.6076084 C245.97849,55.4414046 245.984712,55.2568451 246.065224,55.0948328 C246.145735,54.9328206 246.293887,54.8067369 246.476845,54.744525 L255.985749,51.0578704 C256.352983,50.9090305 256.78337,51.0570745 256.950793,51.3898255 L256.950793,51.3898255 Z" id="Path" fill="#616363"></path>
                    <path d="M190.123298,415.512793 L89,514 L214.873035,514 L251.780914,478.05539 C263.020374,467.107269 267.530126,451.030512 263.611389,435.881077 C259.692653,420.731643 247.940777,408.811091 232.78258,404.609778 C217.624384,400.408465 201.362757,404.564671 190.123298,415.512793 L190.123298,415.512793 Z" id="Path" fill="#070707" opacity="0.1"></path>
                    <path d="M243.838669,473.254349 C255.028478,462.277752 259.518715,446.158763 255.61795,430.96925 C251.717185,415.779737 240.018038,403.827348 224.927463,399.614433 C209.836888,395.401517 193.647503,399.568117 182.457694,410.544714 L77,514 L202.299908,514 L243.838669,473.254349 Z" id="Path" fill="#9E9EE6"></path>
                    <path d="M193.496349,478.487603 C192.498229,479.470385 191.15216,480.014353 189.754576,480 C188.356993,479.985071 187.022511,479.413023 186.045012,478.409545 L176.504193,468.639234 C174.468648,466.548839 174.503423,463.197285 176.581901,461.149963 L194.502236,443.513099 C196.582063,441.467195 199.918559,441.500187 201.95789,443.586821 L211.494392,453.365805 C212.472763,454.368425 213.014288,455.720563 213,457.124449 C212.985138,458.528334 212.415658,459.868833 211.416684,460.850739 L193.496349,478.487603 Z" id="Path" fill="#6B6B6B"></path>
                    <path d="M180.541144,466.579823 C179.947437,467.152263 179.002957,467.138023 178.426777,466.547946 C177.850597,465.957868 177.858868,465.013318 178.445293,464.43342 C179.031718,463.853523 179.976302,463.855825 180.559894,464.438574 C180.844889,464.723158 181.003469,465.110395 180.999942,465.513134 C180.996416,465.915872 180.831079,466.300273 180.541144,466.579823 Z" id="Path" fill="#A7ABAF"></path>
                    <path d="M190.539233,476.581662 C189.944519,477.153047 189.000076,477.137143 188.424938,476.546058 C187.8498,475.954974 187.859725,475.010449 188.447156,474.431581 C189.034588,473.852713 189.979157,473.856658 190.561733,474.440413 C190.846241,474.725497 191.004149,475.11302 190.999917,475.51576 C190.995685,475.918501 190.829668,476.302619 190.539233,476.581662 L190.539233,476.581662 Z" id="Path" fill="#A7ABAF"></path>
                    <path d="M199.54114,447.579827 C198.946935,448.152743 198.001504,448.137929 197.42554,447.546677 C196.849577,446.955426 196.859529,446.009932 197.447811,445.430936 C198.036093,444.85194 198.981626,444.857031 199.56364,445.442328 C199.84698,445.727266 200.004146,446.113975 199.999917,446.515788 C199.995687,446.917601 199.830415,447.300916 199.54114,447.579827 L199.54114,447.579827 Z" id="Path" fill="#A7ABAF"></path>
                    <path d="M209.545895,457.581662 C208.949621,458.153047 208.0027,458.137143 207.426053,457.546058 C206.849406,456.954974 206.859357,456.010449 207.44833,455.431581 C208.037303,454.852713 208.98435,454.856658 209.568454,455.440413 C210.152535,456.038928 210.142457,456.995521 209.545895,457.581662 L209.545895,457.581662 Z" id="Path" fill="#A7ABAF"></path>
                    <path d="M180.415222,431 L175,436.234698 C175,436.234698 180.604927,443.611635 182.519226,449.660809 C184.403344,455.633625 182.226045,462.832395 186.610823,467.77015 L186.610823,467.77015 L186.774659,467.93559 L186.774659,467.93559 C191.706995,472.347329 199.062385,470.353562 205.094149,472.330361 C211.199208,474.32837 218.584778,480 218.584778,480 L224,474.78227 L180.415222,431 Z" id="Path" fill="#182420"></path>
                    <path d="M174.841864,440.483122 C172.761044,442.534145 169.421945,442.501057 167.381683,440.409198 L164.507395,437.456579 C163.527863,436.451207 162.985695,435.095358 163.000287,433.68762 C163.014879,432.279881 163.585036,430.935703 164.585196,429.951102 L175.16171,419.514748 C177.243716,417.464909 180.582829,417.499943 182.621891,419.593021 L185.496179,422.545639 C187.531256,424.641253 187.496454,427.998659 185.418378,430.051117 L174.841864,440.483122 Z" id="Path" fill="#D2F39B"></path>
                    <path d="M223.842219,491.485176 C221.758798,493.535108 218.418425,493.500086 216.377933,491.406919 L213.508051,488.459229 C211.468973,486.364702 211.501854,483.004624 213.581527,480.95088 L224.157733,470.51658 C226.238492,468.46596 229.577494,468.499041 231.617696,470.590489 L234.496222,473.542527 C236.531241,475.637728 236.49644,478.994474 234.418424,481.046528 L223.842219,491.485176 Z" id="Path" fill="#D2F39B"></path>
                    <path d="M198.20093,466.285394 C195.834066,468.604453 192.035184,468.566249 189.715452,466.200059 C187.395721,463.833869 187.433389,460.035533 189.799592,457.715801 C192.165795,455.396069 195.964688,455.433192 198.285093,457.798721 C200.604101,460.166142 200.566433,463.964417 198.20093,466.285394 L198.20093,466.285394 Z" id="Path" fill="#6B6B6B"></path>
                    <path d="M195.950459,463.998984 C194.939646,464.990115 193.431289,465.274738 192.128781,464.720124 C190.826273,464.165511 189.986144,462.880892 190.000173,461.465326 C190.014202,460.04976 190.879624,458.782042 192.192868,458.25335 C193.506111,457.724657 195.008532,458.039116 195.999504,459.050084 C197.352421,460.4303 197.330464,462.645849 195.950459,463.998984 L195.950459,463.998984 Z" id="Path" fill="#182420"></path>
                    <polygon id="Rectangle" fill="#BDDD7F" transform="translate(174.775412, 430.639083) rotate(-44.420000) translate(-174.775412, -430.639083) " points="162.210254 428.25755 187.34057 428.25755 187.34057 433.020616 162.210254 433.020616"></polygon>
                    <polygon id="Rectangle" fill="#BDDD7F" transform="translate(223.911636, 480.786155) rotate(-44.420000) translate(-223.911636, -480.786155) " points="211.346477 478.404622 236.476794 478.404622 236.476794 483.167688 211.346477 483.167688"></polygon>
                    <polygon id="Path" fill="#FFFFFF" points="163.00411 454 176 505.855398 143.499597 495.567479 149.5 514 123 514 137.119098 480.791455 163.00411 495.567479"></polygon>
                    <path d="M358.466866,419.116413 L324.289957,403.240652 C323.658233,402.949166 322.936498,402.921347 322.284231,403.163342 C321.631964,403.405337 321.102858,403.897225 320.813829,404.530316 L290.241953,470.40204 C289.949414,471.033905 289.920993,471.75644 290.162995,472.409352 C290.404998,473.062263 290.897412,473.591565 291.530999,473.879833 L325.707908,489.759892 C327.024982,490.364745 328.582813,489.787495 329.188332,488.470229 L359.760209,422.594206 C360.051279,421.961647 360.078462,421.239133 359.835747,420.586472 C359.593031,419.933811 359.100419,419.404788 358.466866,419.116413 Z" id="Path" fill="#070707" opacity="0.1"></path>
                    <path d="M327.19032,483.470229 C326.58477,484.787495 325.026861,485.364745 323.709719,484.759892 L289.531077,468.879833 C288.897458,468.591565 288.405018,468.062263 288.163004,467.409352 C287.920989,466.75644 287.949412,466.033905 288.241965,465.40204 L318.815393,399.530316 C319.104436,398.897225 319.633568,398.405337 320.285869,398.163342 C320.938169,397.921347 321.659941,397.949166 322.291697,398.240652 L356.470339,414.116413 C357.103159,414.40558 357.594837,414.934939 357.836728,415.587518 C358.07862,416.240098 358.050812,416.962179 357.759451,417.594206 L327.19032,483.470229 Z" id="Path" fill="#FFFFFF"></path>
                    <polygon id="Rectangle" fill="#373737" transform="translate(324.158785, 439.548287) rotate(-65.090000) translate(-324.158785, -439.548287) " points="294.702302 419.022554 353.615269 419.022554 353.615269 460.07402 294.702302 460.07402"></polygon>
                    <polygon id="Path" fill="#494949" opacity="0.6" points="330.208561 475 293 457.853066 355 422"></polygon>
                    <path d="M341.93209,410.643577 C341.831834,410.923645 341.532548,411.068362 341.26047,410.968335 L335.263863,408.09513 C335.013689,407.945688 334.926213,407.615969 335.067611,407.355404 L335.067611,407.355404 C335.171552,407.076485 335.470467,406.932879 335.743592,407.030646 L341.735837,409.89934 C341.986574,410.050534 342.073892,410.381662 341.93209,410.643577 L341.93209,410.643577 Z" id="Path" fill="#616363"></path>
                    <path d="M439.413194,282.299649 L467.630539,299.565477 C468.299123,299.974887 469.102879,300.101527 469.864799,299.917508 C470.626719,299.733489 471.284318,299.253903 471.692775,298.584366 L504.567351,244.764682 C505.416272,243.372041 504.977577,241.554356 503.587107,240.703143 L475.365481,223.433031 C473.974069,222.58336 472.157988,223.022442 471.307526,224.414141 L438.432949,278.233825 C437.583634,279.627773 438.022186,281.446783 439.413194,282.299649 Z" id="Path" fill="#070707" opacity="0.1"></path>
                    <path d="M469.694778,293.585696 C468.844258,294.977555 467.028052,295.416688 465.636545,294.566919 L437.41299,277.303388 C436.022424,276.452077 435.583699,274.634182 436.432678,273.24138 L469.309503,219.415497 C469.717173,218.746173 470.374057,218.266614 471.135333,218.082549 C471.896608,217.898483 472.699766,218.025024 473.367736,218.434274 L501.58701,235.71066 C502.977576,236.561971 503.416301,238.379866 502.567322,239.772667 L469.694778,293.585696 Z" id="Path" fill="#78C0C3"></path>
                    <path d="M481.461776,233.10864 C480.403916,234.971564 478.148864,235.557738 476.421774,234.418729 L471.751565,231.336431 C470.026334,230.194141 469.483486,227.759109 470.538308,225.894177 L470.538308,225.894177 C471.04483,224.997619 471.860955,224.355585 472.806542,224.109791 C473.752128,223.863997 474.749429,224.034652 475.578311,224.584088 L480.244364,227.666387 C481.074484,228.21343 481.669199,229.094328 481.897539,230.115086 C482.125879,231.135845 481.969117,232.212749 481.461776,233.10864 Z" id="Path" fill="#DFDFDF"></path>
                    <path d="M475.631871,229.807811 C474.909816,230.983513 473.37144,231.352149 472.194636,230.631466 C471.017832,229.910782 470.647606,228.373304 471.36743,227.196235 C472.087254,226.019167 473.624927,225.647615 474.803096,226.366066 C475.982134,227.088114 476.353063,228.628511 475.631871,229.807811 Z" id="Path" fill="#555656"></path>
                    <path d="M474.77923,229.283214 C474.346764,229.989409 473.423757,230.211503 472.717342,229.779346 C472.010927,229.347189 471.788453,228.424334 472.220361,227.717797 C472.65227,227.011261 473.575101,226.788438 474.281857,227.220038 C474.621611,227.427517 474.864937,227.761546 474.958229,228.148537 C475.051522,228.535528 474.987127,228.94373 474.77923,229.283214 Z" id="Path" fill="#303030"></path>
                    <path d="M473.856532,228.518531 C473.646544,228.864501 473.248594,229.04993 472.848376,228.988294 C472.448157,228.926657 472.124554,228.630103 472.028569,228.237011 C471.932584,227.84392 472.083135,227.431771 472.409972,227.192884 C472.736808,226.953996 473.175509,226.935457 473.521366,227.145916 C473.99056,227.434441 474.140015,228.046509 473.856532,228.518531 Z" id="Path" fill="#202842"></path>
                    <path d="M478.477979,232.851498 C478.132868,232.640427 477.949065,232.242343 478.012339,231.843004 C478.075613,231.443666 478.373492,231.121784 478.766976,231.027561 C479.16046,230.933337 479.571991,231.085343 479.809536,231.412648 C480.04708,231.739952 480.063817,232.178042 479.851937,232.52249 C479.713979,232.74883 479.49137,232.910835 479.233454,232.972596 C478.975538,233.034356 478.703621,232.99077 478.477979,232.851498 L478.477979,232.851498 Z M479.376336,231.385179 C479.037053,231.179517 478.595186,231.287173 478.388717,231.6258 C478.182249,231.964428 478.289143,232.406159 478.627637,232.613114 C478.966132,232.82007 479.408407,232.714102 479.616169,232.376265 C479.716448,232.213202 479.747521,232.016916 479.702504,231.830888 C479.657487,231.64486 479.540096,231.484445 479.376336,231.385179 Z" id="Shape" fill="#555656"></path>
                    <path d="M476.924647,230.763915 C476.778872,230.998423 476.470592,231.070355 476.236085,230.92458 C476.001577,230.778805 475.929645,230.470525 476.07542,230.236018 C476.16972,230.084318 476.337788,229.99445 476.516314,230.000266 C476.694839,230.006082 476.856701,230.106699 476.940927,230.264215 C477.025153,230.421731 477.018947,230.612216 476.924647,230.763915 Z" id="Path" fill="#202842"></path>
                    <polygon id="Rectangle" fill="#070707" opacity="0.1" transform="translate(272.954612, 258.874449) rotate(-48.440000) translate(-272.954612, -258.874449) " points="158.992245 146.087857 386.916979 146.087857 386.916979 371.66104 158.992245 371.66104"></polygon>
                    <polygon id="Rectangle" fill="#D1A278" transform="translate(262.879899, 259.478888) rotate(-48.440000) translate(-262.879899, -259.478888) " points="148.917532 146.692296 376.842266 146.692296 376.842266 372.26548 148.917532 372.26548"></polygon>
                    <polygon id="Rectangle" fill="#35322F" opacity="0.4" transform="translate(262.878115, 259.474444) rotate(-48.440000) translate(-262.878115, -259.474444) " points="155.904006 153.605436 369.852223 153.605436 369.852223 365.343452 155.904006 365.343452"></polygon>
                    <polygon id="Rectangle" fill="#B58D68" transform="translate(261.275637, 258.063673) rotate(-48.440000) translate(-261.275637, -258.063673) " points="158.599854 154.310632 363.95142 154.310632 363.95142 361.816715 158.599854 361.816715"></polygon>
                    <g id="Group" opacity="0.1" fill="#070707">
                        <path d="M178.919117,345.102857 C168.729067,343.388571 157.172633,334.954286 153.754533,332.532857 C146.34865,327.291429 133.9227,321.15 122.42195,318.531429 L121.762317,314.4 C121.608117,313.482857 120.858533,312.685714 119.98045,312.818571 L100.080083,311.25 C99.202,311.4 98.7608167,312.415714 98.9150167,313.328571 L99.0178167,313.962857 C86.9131167,313.221429 75.7721667,314.768571 69.0344833,315.865714 C49.5496,319.547143 26.8008167,329.58 26.8008167,329.58 C26.8008167,329.58 28.3385333,347.31 38.3144167,378.694286 L36.3954833,379.234286 C35.4381073,377.020662 34.3036196,374.888015 33.0030833,372.857143 L33.0030833,372.857143 C27.1825995,362.898099 18.7361063,354.733065 8.58808333,349.255714 L0.0214166667,344.97 L0.0214166667,464.785714 L9.87308333,460.594286 C28.3171167,452.88 44.8936167,429.544286 42.1265833,401.048571 L42.1265833,401.048571 C41.97961,399.080179 41.7236448,397.121457 41.3598667,395.181429 L43.54865,394.23 C48.4487833,407.884286 54.7581333,423.467143 62.8664833,440.742857 C62.8664833,440.742857 87.2258,435.655714 105.15155,427.174286 C108.008533,425.73 111.713617,423.818571 115.8042,421.414286 L115.928417,422.202857 C116.082617,423.12 116.8322,423.917143 117.710283,423.78 L136.578367,416.807143 C137.460733,416.657143 137.897633,415.645714 137.743433,414.728571 L137.028117,410.232857 C152.525217,402.171429 172.579783,387.822857 182.48285,384.261429 C192.334517,380.725714 193.169767,371.125714 192.450167,364.632857 C191.5421,356.378571 187.155967,346.512857 178.919117,345.102857 Z" id="Path"></path>
                        <path d="M0,24.4285714 L0,40.5728571 C4.68596667,44.22 16.9919833,57.6385714 19.5534167,59.8157143 L17.476,63.1157143 C30.4973333,78.3 57.8678333,86.8371429 84.1203833,75.3685714 L84.1203833,75.3685714 C85.5154959,74.7870322 86.8794378,74.1332922 88.2066833,73.41 C88.4922389,73.2585714 88.7777944,73.1042857 89.06335,72.9471429 L89.39745,72.7714286 L95.1842333,79.2857143 C83.6833972,91.5889982 80.3613229,109.450893 86.6689667,125.07 L86.5918667,125.117143 C81.4980968,128.513849 79.9112556,135.281801 82.9638821,140.590668 C86.0165086,145.899534 92.6617558,147.928728 98.1568667,145.23 C105.738367,161.515714 117.003533,167.044286 119.64635,168.154286 C117.05065,173.952857 118.254267,178.997143 126.769533,193.92 C125.780083,170.348571 216.04705,167.862857 184.92435,125.438571 L184.92435,125.438571 C184.92435,125.275714 184.92435,125.108571 184.92435,124.941429 L184.92435,124.941429 C184.7573,118.684286 183.87065,112.825714 182.17445,108.895714 C180.032783,103.23 174.46445,98.1814286 170.579467,95.1814286 C175.846223,91.5415804 177.179448,84.3256139 173.561325,79.0423669 C169.943203,73.7591199 162.736277,72.3982027 157.442483,75.9985714 C156.958363,76.3212673 156.49879,76.6793894 156.067533,77.07 C142.936987,64.944217 123.706675,62.143204 107.665867,70.02 L103.009883,63.0471429 C104.835332,61.4824021 106.531347,59.7725456 108.08135,57.9342857 L108.08135,57.9342857 C122.721783,41.52 126.3926,20.7771429 122.618983,4.28571429 L121.646667,0 L8.56666667,0 L8.56666667,14.5714286 L29.7006333,43.6757143 L28.0858167,46.2471429 C23.63115,42.4928571 8.3525,30.5228571 0,24.4285714 Z" id="Path"></path>
                        <path d="M492.11645,402.732857 L492.11645,402.732857 C491.050734,403.75712 490.038523,404.835696 489.08385,405.964286 L488.908233,406.17 L488.124383,407.078571 L480.333,403.062857 C486.890783,387.411429 483.489817,369.094286 471.946233,356.301429 L471.946233,356.301429 C475.264849,351.167428 474.018822,344.33618 469.101623,340.706071 C464.184424,337.075962 457.293233,337.89993 453.369417,342.587143 C450.0584,340.512857 446.181983,338.121429 444.181667,337.015714 C432.076967,330.441429 405.901517,328.645714 388.524033,353.764286 C373.129733,380.292857 387.08055,402.574286 398.178667,410.764286 C400.101883,412.182857 404.205317,414.895714 407.580583,417.098571 C404.478885,422.543861 406.273924,429.470146 411.629398,432.72121 C416.984871,435.972274 423.953775,434.36618 427.348167,429.098571 C427.619681,428.67955 427.862943,428.242865 428.076333,427.791429 C443.779033,432.077143 460.6982,427.667143 471.81345,416.061429 L478.953767,421.062857 C477.824762,423.180184 476.866534,425.384332 476.088217,427.654286 C469.825983,444.488571 471.37655,461.344286 477.343233,474.587143 C480.91125,482.532857 503.073217,501.12 508.15325,506.571429 L514,512.828571 L514,390.141429 C507.262317,393.102857 497.946067,396.93 492.11645,402.732857 Z" id="Path"></path>
                        <path d="M496.207033,86.0614286 L484.158017,62.9185714 L508.431667,29.2371429 L514,21.5228571 L514,6.42857143 L424.2813,6.42857143 L418.083317,14.8971429 L392.383317,10.5814286 C392.383317,10.5814286 391.479533,11.4385714 390.11315,12.8742857 C369.55315,5.70428571 347.464,10.6714286 335.714817,26.82 C322.106667,45.5957143 327.161,73.05 346.55165,90.8571429 C346.149017,91.2857143 345.750667,91.7485714 345.360883,92.2114286 C341.539742,96.786217 338.651221,102.065612 336.858467,107.751429 C334.948575,99.8415008 327.475698,94.5725406 319.388398,95.4336698 C311.301098,96.2947991 305.103861,103.019342 304.900517,111.154286 L304.900517,111.154286 L304.900517,111.188571 C304.88569,111.819283 304.907142,112.450326 304.964767,113.078571 L306.815167,132.668571 C307.489763,139.795644 312.755206,145.636965 319.771133,147.041523 C326.787059,148.446081 333.893428,145.081543 337.256817,138.762857 C339.701249,145.952337 343.766868,152.482354 349.138783,157.847143 C346.568783,158.477143 341.651517,157.067143 337.218267,153.45 C345.3566,166.512857 355.036933,162.968571 355.036933,162.968571 C355.036933,162.968571 356.219133,172.29 365.214133,175.59 C362.725517,173.172857 361.32915,169.842857 360.780883,167.7 C366.728754,171.998943 373.566513,174.904884 380.788333,176.202857 C375.614227,180.680215 373.806652,187.925813 376.270894,194.310845 C378.735136,200.695877 384.940584,204.845487 391.779367,204.681429 L391.817917,204.681429 C392.044933,204.681429 392.276233,204.681429 392.50325,204.651429 L412.120917,203.305714 C412.780927,203.258231 413.437471,203.170929 414.086967,203.044286 L414.086967,203.044286 C421.892408,201.530562 427.448071,194.575509 427.203288,186.624154 C426.958504,178.6728 420.985556,172.07305 413.1018,171.042857 C418.164571,168.291728 422.668172,164.617073 426.380133,160.208571 C427.591704,158.758843 428.709092,157.232854 429.725417,155.64 C430.522117,156.278571 431.331667,156.925714 432.162633,157.508571 C456.037933,174.865714 487.546133,172.345714 502.4093,151.894286 C515.434917,133.954286 511.4043,108.085714 494.086783,90.2871429 C495.423183,87.7971429 496.207033,86.0614286 496.207033,86.0614286 Z M417.04675,61.6071429 L421.809817,65.9442857 L419.124167,70.0542857 C404.094993,62.1619588 385.843539,63.7803721 372.435833,74.1942857 C379.015033,64.9757143 388.05715,54.48 399.112433,46.8557143 L417.04675,61.6071429 Z M348.5434,36.1414286 C355.221117,26.9442857 367.51,23.6228571 379.978783,26.4042857 C379.386016,27.5143044 378.861058,28.6592622 378.4068,29.8328571 L398.238633,46.1442857 C388.913817,49.4485714 373.116883,62.3571429 365.012817,78.78 C363.121465,79.4309396 361.274323,80.2039924 359.483033,81.0942857 C344.1744,68.7214286 339.210017,48.9942857 348.5434,36.1414286 Z M489.585,142.568571 C479.938933,155.854286 458.607933,156.874286 441.855817,144.938571 C442.00145,144.78 442.1428,144.617143 442.28415,144.45 C446.335269,139.466418 445.581608,132.140521 440.6008,128.087143 C440.6008,128.087143 456.800367,123.934286 461.927517,101.121429 C455.95655,109.941429 452.439933,118.487143 439.602783,123.407143 C445.162089,108.352575 441.953545,91.4567229 431.263133,79.4914286 L434.6898,75.4371429 L440.5494,78.6814286 L440.5494,78.6814286 L482.251933,105.3 C483.064813,104.699876 483.837471,104.047046 484.564933,103.345714 C495.0591,115.495714 497.560567,131.571429 489.585,142.568571 Z" id="Shape"></path>
                    </g>
                    <g id="Beanie" transform="translate(0.000000, 307.000000)">
                        <path d="M30.4413023,75.2442857 C24.6517209,57.3985714 13.004093,45.1285714 0,38.1171429 L0,149.974286 L1.28372093,149.468571 C22.8074419,140.468571 41.768,110.142857 30.4413023,75.2442857 Z" id="Path" fill="#FFFFFF"></path>
                        <g id="Front" transform="translate(11.125581, 2.571429)">
                            <path d="M49.2649302,2.14285714 C66.9417674,-0.728571429 114.644837,-6.72 130.952372,33.54 L131.050791,33.5057143 C131.124554,33.6690081 131.188847,33.8364293 131.243349,34.0071429 C131.572837,34.9285714 131.83814,35.7471429 132.099163,36.6514286 C132.360186,37.5557143 132.702512,38.4728571 132.980651,39.4114286 C133.049116,39.6514286 133.160372,40.0371429 133.151814,40.0414286 L133.057674,40.0714286 C143.712558,82.7228571 101.349767,105.355714 85.3546047,113.447143 C67.4466977,121.928571 43.115907,127.015714 43.115907,127.015714 C10.6976744,57.8571429 7.06902326,15.8571429 7.06902326,15.8571429 C7.06902326,15.8571429 29.7951628,5.83285714 49.2649302,2.14285714 Z" id="Path" fill="#373737"></path>
                            <path d="M22.4094884,87.33 C22.2647818,85.3613904 22.0090558,83.4025499 21.6435349,81.4628571 L34.408,75.8914286 L30.3471628,61.6371429 L16.6541395,65.4942857 C15.7033521,63.2901781 14.5771819,61.1661935 13.2865116,59.1428571 C12.5986489,59.3257048 11.9238782,59.5547958 11.2667907,59.8285714 C2.73004651,63 -1.83572093,71.7471429 1.06976744,79.3928571 C3.97525581,87.0385714 13.2565581,90.6771429 21.7933023,87.5357143 C21.9302326,87.4671429 22.2725581,87.3857143 22.4094884,87.33 Z" id="Path" fill="#FCCFB2"></path>
                        </g>
                        <g id="Head" transform="translate(37.227907, 0.000000)">
                            <path d="M30.7665116,18.2742857 C8.08675154,25.245507 -4.65690385,49.3103162 2.30213953,72.0257143 L2.30213953,72.0257143 C5.64372237,82.9335483 13.1748826,92.0651049 23.2388221,97.4115109 C33.3027616,102.757917 45.0750789,103.881214 55.9659535,100.534286 L71.2807442,95.82 C82.1724548,92.4741229 91.2908678,84.9316391 96.6298414,74.8519703 C101.968815,64.7723016 103.090961,52.9812113 99.7493953,42.0728571 L99.7493953,42.0728571 C96.4077693,31.1639158 88.8761514,22.0313016 78.8114229,16.684099 C68.7466945,11.3368965 56.9733118,10.2131239 46.0813023,13.56 L30.7665116,18.2742857 Z" id="Path" fill="#FCCFB2"></path>
                            <path d="M53.0133953,88.5128571 C46.937524,90.396587 43.534382,96.8543952 45.4098522,102.941354 C47.2853224,109.028313 53.7301259,112.442412 59.8092929,110.569378 C65.88846,108.696345 69.3029271,102.244536 67.4381395,96.1542857 C65.5549211,90.0603263 59.1027008,86.6422983 53.0133953,88.5128571 L53.0133953,88.5128571 Z" id="Path" fill="#FCCFB2"></path>
                            <path d="M14.0909767,104.43 L14.9467907,115.632857 C14.9467907,115.632857 57.6262326,103.508571 79.8260465,93.7114286 C79.8260465,93.7114286 101.490977,81.2528571 104.447814,73.9242857 C108.269023,64.4571429 99.3129302,33.4071429 99.3129302,33.4071429 C99.3129302,33.4071429 97.1348837,74.5071429 14.0909767,104.43 Z" id="Path" fill="#373737"></path>
                            <path d="M91.5250233,39.5485714 L0.0385116279,17.8371429 C0.0385116279,17.8371429 34.6989767,1.98 57.3780465,9.16714286 C91.4094884,19.92 91.5250233,39.5485714 91.5250233,39.5485714 Z" id="Path" fill="#373737"></path>
                            <path d="M76.5397209,104.571429 C90.4167442,103.105714 122.954791,78 136.523721,73.1142857 C146.365581,69.5785714 147.2,59.9785714 146.481116,53.4857143 C145.565395,45.2357143 141.183628,35.37 132.954977,33.96 C122.77507,32.2457143 111.23014,23.8114286 107.815442,21.39 C97.3745116,13.9971429 76.9376744,4.79142857 63.2232558,6.25714286 L76.5397209,104.571429 Z" id="Path" fill="#EE509C"></path>
                            <path d="M54.1944186,0.107142857 C53.3172093,0.257142857 52.8764651,1.27285714 53.0347907,2.18571429 L70.0355349,111.042857 C70.1938605,111.96 70.9384186,112.757143 71.8156279,112.62 L90.6435349,105.647143 C91.5250233,105.497143 91.9614884,104.485714 91.8074419,103.568571 L75.8593488,3.25714286 C75.7010233,2.34 74.9564651,1.54285714 74.0749767,1.67571429 L54.1944186,0.107142857 Z" id="Path" fill="#D84C96"></path>
                        </g>
                        <g id="Head-2" transform="translate(53.060465, 32.142857)">
                            <path d="M15.4731163,1.24285714 C13.2266047,2.72571429 12.5419535,5.64428571 13.9454884,7.77 C15.3490233,9.89571429 18.2930233,10.4142857 20.5395349,8.93142857 C22.7860465,7.44857143 23.4664186,4.52571429 22.0671628,2.4 C20.667907,0.274285714 17.7153488,-0.24 15.4731163,1.24285714 Z" id="Path" fill="#000000"></path>
                            <path d="M25.8584186,41.7728571 C23.616186,43.2557143 22.9272558,46.1785714 24.3307907,48.3042857 C25.7343256,50.43 28.6783256,50.9442857 30.9248372,49.4657143 C33.1713488,47.9871429 33.856,45.0557143 32.4567442,42.9342857 C31.0574884,40.8128571 28.1006512,40.2857143 25.8584186,41.7728571 Z" id="Path" fill="#000000"></path>
                            <path d="M15.8068837,44.4514286 L7.04334884,13.26 C7.04334884,13.26 -2.05823256,22.6671429 0.885767442,31.7485714 C3.89395349,41.0142857 15.8068837,44.4514286 15.8068837,44.4514286 Z" id="Path" fill="#FFFFFF"></path>
                        </g>
                    </g>
                    <g id="Nerd">
                        <path d="M0,46.6465011 C9.13285714,53.7575621 14.6828571,58.758465 14.8885714,58.9600451 L14.8885714,58.9600451 L25.5771429,47.2383747 C24.6385714,46.3805869 14.9485714,37.6054176 0,26.6986456 L0,46.6465011 Z" id="Path" fill="#FCCFB2"></path>
                        <path d="M21.1457143,39.4239278 L8.91428571,58.8742664 C24.1114286,76.6004515 58.8428571,85.2769752 88.5428571,63.682167 C112.285714,46.4148984 118.714286,20.0636569 114.115714,0 L0,0 L0,10.2934537 L21.1457143,39.4239278 Z" id="Path" fill="#FFFFFF"></path>
                        <path d="M75.5957143,71.1363431 C77.407051,70.3663818 79.1753585,69.4987437 80.8928571,68.537246 L90.1714286,79.0408578 L102.471429,70.7674944 L94.5128571,58.8399549 C96.3379789,57.2740123 98.0335101,55.562862 99.5828571,53.7232506 C99.1896216,53.1257051 98.7602492,52.5527778 98.2971429,52.0076749 C92.6485714,44.8451467 82.9071429,43.206772 76.5342857,48.3406321 C70.1614286,53.4744921 69.5742857,63.4419865 75.2185714,70.6045147 C75.3214286,70.720316 75.5014286,71.0205418 75.5957143,71.1363431 Z" id="Path" fill="#FCCFB2"></path>
                        <g id="Head-3" transform="translate(72.857143, 61.331828)">
                            <g id="teen">
                                <path d="M1.97142857,75.7255079 C-1.5567239,70.3774596 -0.0877561406,63.1800272 5.25341788,59.6448989 C10.5945919,56.1097706 17.7877975,57.5740262 21.3245834,62.9163604 C24.8613693,68.2586945 23.4040286,75.4584937 18.0685714,79.0022573 C12.7189472,82.5440439 5.51339407,81.0772748 1.97142857,75.7255079 L1.97142857,75.7255079 Z" id="Path" fill="#FCCFB2"></path>
                                <path d="M9.34714286,67.2505643 C-3.85650533,47.3355296 1.57167641,20.4795118 21.4714286,7.26546275 L21.4714286,7.26546275 C31.0296432,0.915038596 42.717793,-1.37388424 53.9628934,0.902568929 C65.2079939,3.1790221 75.0882181,9.83423703 81.4285714,19.4031603 L90.3428571,32.8532731 C95.6657143,40.882167 104.057143,51.5959368 103.602857,60.5340858 C102.921429,73.7611738 90.0942857,84.9467269 78.2142857,92.8340858 L78.2142857,92.8340858 C68.6584167,99.1799937 56.974632,101.466337 45.7340511,99.1899849 C34.4934702,96.9136331 24.6171896,90.2611196 18.2785714,80.6963883 L9.34714286,67.2505643 Z" id="Path" fill="#FCCFB2"></path>
                                <path d="M72.8571429,26.5914221 C69.3307223,21.2424188 70.8017346,14.0456293 76.1437415,10.5120475 C81.4857484,6.97846569 88.6783643,8.4445177 92.2137912,13.7875636 C95.7492181,19.1306094 94.2903321,26.3298706 88.9542857,29.8724605 C83.6035473,33.4134173 76.3977234,31.9446731 72.8571429,26.5914221 L72.8571429,26.5914221 Z" id="Path" fill="#FCCFB2"></path>
                                <path d="M82.14,26.5914221 C83.1279431,26.5542543 84.1172533,26.6016047 85.0971429,26.7329571 C85.0971429,26.7329571 97.3928571,34.2171558 100.851429,43.3525959 C102.565714,47.285553 103.422857,53.1485327 103.602857,59.4103837 L89.0914286,57.9092551 C89.0057143,50.2492099 89.28,40.2002257 82.14,26.5914221 Z" id="Path" fill="#BA6338"></path>
                                <path d="M43.8514286,95.278781 L38.8671429,102.904515 C38.8671429,102.904515 25.3757143,98.2853273 16.7142857,79.6069977 L17.3271429,78.7492099 C17.3271429,78.7492099 29.61,94.785553 43.8514286,95.278781 Z" id="Path" fill="#BA6338"></path>
                                <path d="M103.607143,59.9293454 L89.0785714,58.5139955 C89.0785714,58.5139955 52.1271429,80.0959368 40.95,97.9336343 C35.55,106.554402 34.7357143,109.736795 45.42,128.462302 C44.43,104.890293 134.747143,102.385553 103.607143,59.9293454 Z" id="Path" fill="#A55532"></path>
                            </g>
                            <path d="M36.3728571,41.0751693 C36.0893858,40.7737244 35.6515709,40.6744142 35.2659267,40.8240827 C34.8802826,40.9737512 34.6238481,41.3424995 34.6175817,41.7563916 C34.6113153,42.1702837 34.8564689,42.5466376 35.2374051,42.7079296 C35.6183413,42.8692217 36.0589617,42.7832312 36.3514286,42.4905192 C36.5422046,42.30589 36.6516925,42.0528554 36.6557132,41.7872956 C36.6597338,41.5217358 36.5579562,41.2654978 36.3728571,41.0751693 L36.3728571,41.0751693 Z" id="Path" fill="#9B4B10"></path>
                            <path d="M42.1714286,40.5090293 C41.9606653,40.2934975 41.6405172,40.2270635 41.3614969,40.3409602 C41.0824766,40.4548569 40.9000943,40.7264251 40.9000943,41.027991 C40.9000943,41.3295569 41.0824766,41.601125 41.3614969,41.7150217 C41.6405172,41.8289185 41.9606653,41.7624844 42.1714286,41.5469526 C42.3090882,41.4093824 42.3864409,41.2226812 42.3864409,41.027991 C42.3864409,40.8333007 42.3090882,40.6465996 42.1714286,40.5090293 L42.1714286,40.5090293 Z" id="Path" fill="#9B4B10"></path>
                            <path d="M42.7371429,34.7404063 C42.453147,34.4402065 42.0157691,34.3420318 41.6308598,34.4920878 C41.2459505,34.6421439 40.9901898,35.0105371 40.9839506,35.4238845 C40.9777113,35.8372319 41.2222366,36.213188 41.6024413,36.3748104 C41.982646,36.5364327 42.4227874,36.4515236 42.7157143,36.1600451 C42.9067525,35.9746784 43.0163457,35.7209307 43.0203647,35.4546692 C43.0243838,35.1884077 42.9224992,34.931463 42.7371429,34.7404063 Z" id="Path" fill="#9B4B10"></path>
                            <path d="M47.3571429,36.8848758 C47.1072788,36.6297717 46.7280221,36.5513122 46.3975656,36.6863614 C46.067109,36.8214106 45.8511459,37.1431213 45.8511459,37.5003386 C45.8511459,37.8575559 46.067109,38.1792666 46.3975656,38.3143158 C46.7280221,38.449365 47.1072788,38.3709055 47.3571429,38.1158014 C47.5234092,37.9542664 47.6172356,37.732243 47.6172356,37.5003386 C47.6172356,37.2684342 47.5234092,37.0464108 47.3571429,36.8848758 Z" id="Path" fill="#9B4B10"></path>
                            <path d="M48.8142857,31.4379233 C48.518203,31.1352826 48.0685526,31.0420575 47.6766934,31.2020687 C47.2848343,31.3620798 47.0287085,31.7435003 47.0287085,32.1670429 C47.0287085,32.5905854 47.2848343,32.972006 47.6766934,33.1320171 C48.0685526,33.2920282 48.518203,33.1988032 48.8142857,32.8961625 C49.0079532,32.7030211 49.1168111,32.4406616 49.1168111,32.1670429 C49.1168111,31.8934242 49.0079532,31.6310647 48.8142857,31.4379233 L48.8142857,31.4379233 Z" id="Path" fill="#9B4B10"></path>
                            <path d="M51.2142857,26.5528217 C50.9806584,26.3129007 50.6250831,26.2385293 50.3149941,26.3647277 C50.0049051,26.4909262 49.8021156,26.792538 49.8021156,27.1275395 C49.8021156,27.462541 50.0049051,27.7641528 50.3149941,27.8903513 C50.6250831,28.0165497 50.9806584,27.9421784 51.2142857,27.7022573 C51.5302876,27.3843664 51.5302876,26.8707126 51.2142857,26.5528217 L51.2142857,26.5528217 Z" id="Path" fill="#9B4B10"></path>
                            <path d="M30.1414286,41.9801354 C29.8869826,41.7193076 29.5000487,41.6386516 29.1627028,41.776121 C28.825357,41.9135904 28.6047886,42.2418053 28.6047886,42.6063205 C28.6047886,42.9708358 28.825357,43.2990507 29.1627028,43.4365201 C29.5000487,43.5739894 29.8869826,43.4933334 30.1414286,43.2325056 C30.4834367,42.8852033 30.4834367,42.3274378 30.1414286,41.9801354 L30.1414286,41.9801354 Z" id="Path" fill="#9B4B10"></path>
                            <path d="M33.5485714,45.4069977 C33.2941254,45.1461699 32.9071915,45.065514 32.5698457,45.2029833 C32.2324998,45.3404527 32.0119315,45.6686676 32.0119315,46.0331828 C32.0119315,46.3976981 32.2324998,46.725913 32.5698457,46.8633824 C32.9071915,47.0008517 33.2941254,46.9201957 33.5485714,46.6593679 C33.715022,46.4935598 33.8085976,46.2682144 33.8085976,46.0331828 C33.8085976,45.7981513 33.715022,45.5728059 33.5485714,45.4069977 Z" id="Path" fill="#9B4B10"></path>
                            <path d="M26.1042857,46.0031603 C25.8498397,45.7423325 25.4629058,45.6616765 25.12556,45.7991459 C24.7882141,45.9366152 24.5676458,46.2648301 24.5676458,46.6293454 C24.5676458,46.9938606 24.7882141,47.3220755 25.12556,47.4595449 C25.4629058,47.5970143 25.8498397,47.5163583 26.1042857,47.2555305 C26.2707362,47.0897223 26.3643119,46.8643769 26.3643119,46.6293454 C26.3643119,46.3943138 26.2707362,46.1689684 26.1042857,46.0031603 Z" id="Path" fill="#9B4B10"></path>
                        </g>
                        <path d="M95.4128571,139.643567 L116.412857,124.456433 L132,113.189391 L132.167143,113.0693 L153,97.9979684 C155.892857,95.9049661 156.428571,91.5431151 154.221429,88.2277652 L154.14,88.1076749 L154.058571,87.9875847 C153.861429,87.6873589 146.854286,80.0702032 144.467143,78.2817156 C142.534286,76.8320542 138.098571,74.6532731 135.18,76.7634312 L119.64,88.0004515 C114.325714,91.8604966 120.78,106.687359 122.37,110.169977 C122.702177,111.614094 122.167175,113.119918 120.998571,114.030023 C119.86961,114.814137 118.381888,114.847898 117.218571,114.115801 C114.904286,111.598194 103.581429,99.6148984 98.1728571,103.522122 L82.6371429,114.759142 C79.7142857,116.873589 80.1128571,121.973138 80.7342857,124.374944 C81.4971429,127.3386 85.8771429,136.834312 86.0442857,137.177427 L86.1,137.310384 L86.1814286,137.434763 C88.3757143,140.750113 92.52,141.740858 95.4128571,139.643567 Z M123.968571,107.905418 C121.714286,103.063205 118.122857,92.6668172 121.225714,90.423702 L135.934286,79.6756208 C137.948571,77.9600451 140.172857,79.8428894 141.861429,81.1038375 C143.892857,82.6264108 148.718571,88.317833 149.55,89.162754 C150.784286,91.1356659 151.264286,93.0914221 149.55,94.3094808 L129.381429,109.007675 C128.35038,109.732057 127.037747,109.926208 125.841429,109.530926 C125.013738,109.271938 124.333672,108.675458 123.968571,107.888262 L123.968571,107.905418 Z M84.3471429,123.632957 C83.8114286,121.539955 82.7271429,118.511964 85.0542857,116.693454 L99.7671429,105.936795 C102.87,103.689391 110.747143,110.873363 114.304286,114.776298 C114.885792,115.440358 115.176131,116.310485 115.11,117.190971 C115.053688,118.483932 114.425442,119.684784 113.395714,120.46772 L93.2271429,135.165914 C91.5128571,136.39684 89.5285714,135.42754 88.1957143,133.536117 C87.7242857,132.420993 84.9985714,126.137698 84.3471429,123.615801 L84.3471429,123.632957 Z" id="Shape" fill="#000000"></path>
                        <path d="M102.235714,112.764786 C100.011429,110.989165 96.8485714,111.255079 95.1728571,113.356659 C93.4971429,115.458239 93.9385714,118.606321 96.1628571,120.381941 C98.3871429,122.157562 101.55,121.895937 103.23,119.790068 C104.91,117.684199 104.46,114.540406 102.235714,112.764786 Z" id="Path" fill="#000000"></path>
                        <path d="M134.708571,89.1541761 C132.484286,87.3785553 129.321429,87.6444695 127.645714,89.7460497 C125.97,91.8476298 126.411429,94.9957111 128.635714,96.7713318 C130.86,98.5469526 134.022857,98.2810384 135.698571,96.1794582 C137.374286,94.0778781 136.932857,90.9255079 134.708571,89.1541761 Z" id="Path" fill="#000000"></path>
                        <path d="M87.1114286,102.008126 L91.1485714,98.9629797 C92.2585714,95.2873589 96.3342857,90.3121896 102.12,86.0189616 C107.691429,81.8844244 113.43,79.4440181 117.287143,79.2724605 L121.058571,76.4288939 C116.07,74.8677201 111.818571,74.2029345 108.18,74.2114305 C106.864286,77.2395034 103.894286,80.9322799 99.8485714,84.2390519 C95.8028571,87.5458239 91.5042857,89.7760722 88.2771429,90.4365688 C87.3237707,94.215698 86.9309961,98.1146063 87.1114286,102.008126 L87.1114286,102.008126 Z" id="Path" fill="#B22F65"></path>
                        <path d="M108.18,74.1986456 C95.3228571,74.241535 90.2314286,82.8108352 88.2642857,90.423702 C91.5042857,89.7632054 95.76,87.5672686 99.8357143,84.2261851 C103.911429,80.8851016 106.864286,77.2395034 108.18,74.1986456 Z" id="Path" fill="#E25D90"></path>
                        <path d="M91.1485714,98.9629797 L117.291429,79.2724605 C113.434286,79.4440181 107.704286,81.8844244 102.124286,86.0189616 C96.3342857,90.3121896 92.2585714,95.2873589 91.1485714,98.9629797 Z" id="Path" fill="#FFFFFF"></path>
                    </g>
                    <g id="Pastel" transform="translate(304.000000, 0.000000)">
                        <path d="M111.3,82.3303672 L124.127143,91.6273866 C114.402857,104.982765 120.175714,125.762073 136.984286,137.949978 C153.792857,150.137883 175.388571,149.197063 185.108571,135.845961 C194.828571,122.49486 189.06,101.715551 172.251429,89.5233693 L181.572857,76.7239309 C205.461429,94.0435853 212.802857,124.735724 197.944286,145.147257 C183.085714,165.55879 151.56,168.069071 127.658571,150.749417 C103.757143,133.429762 96.4285714,102.737624 111.287143,82.3260907 L111.3,82.3303672 Z" id="Path" fill="#F4AC89"></path>
                        <path d="M117.857143,83.1642765 C102.994286,103.571533 71.4728571,106.086091 47.5714286,88.7664363 C23.67,71.4467819 16.3371429,40.7589201 31.2,20.3431102 C46.0628571,-0.072699784 77.5714286,-2.56587473 101.468571,14.7452268 L92.1428571,27.5403888 C75.3257143,15.3524838 53.7385714,16.2933045 44.0142857,29.6486825 C34.29,43.0040605 40.0671429,63.7790929 56.8714286,75.9712743 C73.6757143,88.1634557 95.2971429,87.2397408 105,73.8629806 L117.857143,83.1642765 Z" id="Path" fill="#F4AC89"></path>
                        <path d="M119.802857,0 L113.601429,8.45028078 L87.8871429,4.14388769 C87.8871429,4.14388769 77.5714286,13.8300648 73.9028571,23.3409071 L113.918571,56.1712743 C113.918571,56.1712743 134.395714,71.0191361 134.768571,71.2757235 L177.788571,98.645054 C185.695714,92.8632829 191.764286,79.4480346 191.764286,79.4480346 L179.712857,56.355162 L210,14.4458747 L209.858571,0 L119.802857,0 Z" id="Path" fill="#FFFFFF"></path>
                        <path d="M136.054286,72.1096328 L130.191429,68.8723542 L120.968571,79.7431102 L109.174286,71.8444924 L117.317143,59.4 L112.538571,55.0593952 C112.967143,54.4136501 113.284286,54.0501512 113.755714,53.4514471 C119.404286,46.3140389 128.721429,44.3682505 135.094286,49.4871706 C141.467143,54.6060907 142.054286,64.5445788 136.405714,71.6862635 C136.328571,71.7888985 136.148571,71.9941685 136.054286,72.1096328 Z" id="Path" fill="#F4AC89"></path>
                        <path d="M40.8385714,85.597581 C57.87,65.3357235 89.8242857,64.0998272 112.204286,82.8349892 C134.584286,101.570151 138.917143,133.181728 121.885714,153.443585 C105.03,173.49162 72.5014286,176.681857 51.2271429,156.787775 C50.9871429,156.595335 50.7514286,156.402894 50.52,156.206177 L49.9328571,155.710108 C26.7942857,138.309201 23.9528571,105.679827 40.8385714,85.597581 Z" id="Path" fill="#9E9EE6"></path>
                        <path d="M136.101429,121.39581 C136.101429,121.39581 152.31,117.251922 157.44,94.4883369 C151.011429,103.990626 147.411429,113.176458 131.858571,117.84635 C116.305714,122.516242 132,123.84622 136.101429,121.39581 Z" id="Path" fill="#78C0C3"></path>
                        <g id="Blond_girl" transform="translate(0.000000, 38.488121)">
                            <path d="M128.232857,32.5994384 C128.232857,32.5994384 122.014286,25.1755076 116.605714,22.5241037 L113.982857,25.94527 L125.327143,35.4432829 L128.232857,32.5994384 Z" id="Path" fill="#373737" opacity="0.1"></path>
                            <path d="M119.747143,84.6311015 C123.798141,79.6732639 131.108728,78.9281669 136.080581,82.9663932 C141.052434,87.0046194 141.805072,94.2988103 137.762139,99.2631983 C133.719206,104.227586 126.409839,104.984515 121.431429,100.954341 C119.038506,99.0128077 117.516669,96.2021517 117.200794,93.1408485 C116.884918,90.0795452 117.800887,87.018434 119.747143,84.6311015 L119.747143,84.6311015 Z" id="Path" fill="#EDA280"></path>
                            <path d="M60.8785714,36.0291577 C68.1109264,27.1310364 78.5898577,21.4646642 90.0095643,20.2768786 C101.429271,19.0890931 112.854059,22.4772175 121.77,29.6957235 L121.77,29.6957235 C130.687381,36.9124579 136.366018,47.3687565 137.556375,58.7637985 C138.746731,70.1588405 135.351273,81.5589531 128.117143,90.4556371 L117.942857,102.964276 C110.710604,111.861138 100.232537,117.52667 88.8138777,118.71443 C77.3952187,119.902191 65.9714003,116.514876 57.0557143,109.297711 L57.0557143,109.297711 C48.1383331,102.080976 42.4596959,91.6246776 41.2693394,80.2296356 C40.0789829,68.8345937 43.4744409,57.434481 50.7085714,48.537797 L60.8785714,36.0291577 Z" id="Path" fill="#F5AB85"></path>
                            <path d="M88.0157143,36.8245788 L116.301429,61.4313175 C116.301429,61.4313175 120.025714,47.10946 110.73,39.3220302 C101.571429,31.6457883 90.15,35.1139957 88.0157143,36.8245788 Z" id="Path" fill="#FFFFFF"></path>
                            <path d="M81.7842857,50.8470842 C82.9714286,48.2469978 81.9471429,45.232095 79.4828571,44.1073866 C77.0185714,42.9826782 74.0657143,44.1800864 72.8742857,46.7758963 C71.6828571,49.3717063 72.7114286,52.395162 75.1757143,53.5198704 C77.64,54.6445788 80.5928571,53.4557235 81.7842857,50.8470842 Z" id="Path" fill="#000000"></path>
                            <path d="M112.714286,76.7453132 C113.901429,74.1495032 112.877143,71.1346004 110.412857,70.009892 C107.948571,68.8851836 104.995714,70.0825918 103.804286,72.6784017 C102.612857,75.2742117 103.641429,78.2976674 106.101429,79.4180994 C108.561429,80.5385313 111.535714,79.3453996 112.714286,76.7453132 Z" id="Path" fill="#000000"></path>
                            <path d="M70.7142857,144.266307 C70.1012762,135.355959 76.8368812,127.634016 85.7657143,127.010799 L105.394286,125.667991 C114.326237,125.056472 122.065036,131.783146 122.682857,140.695464 L122.682857,140.695464 C122.978288,144.977698 121.556584,149.201613 118.730585,152.437755 C115.904586,155.673898 111.905851,157.657102 107.614286,157.950972 L87.9857143,159.29378 C79.0602369,159.89542 71.3322552,153.171481 70.7142857,144.266307 Z" id="Path" fill="#9E9EE6"></path>
                            <path d="M19.9414286,102.070497 C15.6592695,102.476342 11.3910498,101.167097 8.07680237,98.4311081 C4.76255494,95.6951194 2.67411064,91.7567904 2.27142857,87.4834989 L0.428571429,67.9358099 C-0.411082693,59.0397382 6.13235655,51.1475274 15.0471429,50.3039741 L15.0471429,50.3039741 C23.9655869,49.4637027 31.8783019,55.9961644 32.7214286,64.8952484 L34.5685714,84.4386609 C34.9741298,88.7113317 33.6616242,92.9697102 30.9199359,96.2765311 C28.1782476,99.583352 24.2320869,101.667587 19.95,102.070497 L19.9414286,102.070497 Z" id="Path" fill="#9E9EE6"></path>
                            <path d="M55.6457143,49.4059179 C55.6457143,49.4059179 71.1428571,16.6781857 96.8828571,0.354946004 C86.1685714,1.5438013 58.68,23.7813823 55.6457143,49.4059179 Z" id="Path" fill="#78C0C3"></path>
                            <path d="M63.9257143,97.43054 L130.538571,89.8056156 C130.538571,89.8056156 127.251429,94.5396544 122.395714,100.625054 C113.215714,112.11162 98.43,128.42203 89.5885714,126.737106 C76.0585714,124.171231 51.2957143,113.146523 51.2957143,113.146523 C51.2957143,113.146523 32.0614286,87.3552052 36.9728571,71.6092873 C41.8842857,55.8633693 59.3571429,35.0669546 59.3571429,35.0669546 C59.3571429,35.0669546 57.9857143,79.9911447 63.9257143,97.43054 Z" id="Path" fill="#9E9EE6"></path>
                            <path d="M3,90.6908423 C3,90.6908423 25.0757143,96.4854428 34.5214286,81.1628942 L33.2357143,67.5936933 C33.2357143,67.5936933 16.8214286,92.4869546 3,90.6908423 Z" id="Path" fill="#E67DB7"></path>
                            <path d="M1.55142857,79.4480346 L0.351428571,66.0156803 C0.351428571,66.0156803 12.0728571,51.5954644 31.0371429,59.6009935 C23.0142857,59.8062635 8.14285714,64.6857019 1.55142857,79.4480346 Z" id="Path" fill="#8487CD"></path>
                            <path d="M82.3414286,127.618056 C82.3414286,127.618056 70.77,140.648423 87.2614286,159.336544 L98.5414286,158.579611 C98.5414286,158.579611 77.1428571,142.367559 82.3414286,127.618056 Z" id="Path" fill="#8487CD"></path>
                            <path d="M91.2257143,126.861123 L108.368571,125.740691 C108.368571,125.740691 121.932857,144.903499 109.577143,157.698661 C110.365714,149.291145 105.137143,134.870929 91.2257143,126.861123 Z" id="Path" fill="#78C0C3"></path>
                            <path d="M52.7785714,111.427387 C52.7785714,111.427387 38.3571429,101.591533 34.4314286,88.5312311 C40.0028571,93.3336933 58.6328571,102.468207 58.6328571,102.468207 C58.6328571,102.468207 54.6814286,107.766739 52.7785714,111.427387 Z" id="Path" fill="#8487CD"></path>
                            <path d="M59.5714286,97.02 C59.5714286,97.02 37.8557143,68.0940389 46.4185714,41.5586177 C51.4285714,37.4232829 54.3557143,36.3156803 54.3557143,36.3156803 C54.3557143,36.3156803 46.7142857,75.1673002 59.5714286,97.02 Z" id="Path" fill="#78C0C3"></path>
                            <path d="M61.3971429,104.773218 C61.3971429,104.773218 100.474286,123.965961 121.397143,101.907991 L61.3971429,104.773218 Z" id="Path" fill="#E67DB7"></path>
                            <path d="M52.1914286,117.174946 C52.1914286,117.174946 53.1685714,112.928423 57.03,108.194384 L85.7442857,127.036458 C85.7442857,127.036458 69.9557143,128.563153 52.1914286,117.174946 Z" id="Path" fill="#8487CD"></path>
                            <path d="M50.52,117.718056 C50.52,117.718056 40.8171429,121.254687 32.6914286,108.220043 C37.5342857,112.158661 42.9771429,113.484363 45.2614286,112.393866 C47.5457143,111.303369 50.4814286,115.490022 50.52,117.718056 Z" id="Path" fill="#9E9EE6"></path>
                            <path d="M50.52,117.718056 C50.52,117.718056 51.7028571,127.019352 60.7028571,130.312225 C56.9571429,126.685788 55.6885714,121.006652 56.0442857,120.378013 C56.1771429,121.52838 50.52,117.718056 50.52,117.718056 Z" id="Path" fill="#9E9EE6"></path>
                        </g>
                    </g>
                    <g id="Beard_Present" transform="translate(373.000000, 328.000000)">
                        <path d="M129.038571,147.981429 L141,155.858571 L141,53.3828571 C126.355714,56.6228571 111.595714,65.5714286 101.142857,81.81 C81.3171429,112.714286 91.8857143,147 110.434286,161.142857 L129.038571,147.981429 Z" id="Path" fill="#FFFFFF"></path>
                        <path d="M126.801429,149.571429 L113.85,158.734286 C116.978571,162.865714 121.495714,168.535714 126.578571,173.987143 C127.371429,174.844286 136.641429,184.761429 137.858571,185.987143 L141,185.987143 L141,166.56 C138.06,163.165714 128.837143,152.241429 126.801429,149.571429 Z" id="Path" fill="#9B6D5C"></path>
                        <path d="M110.528571,70.1571429 C109.120432,71.5319787 107.788447,72.9827116 106.538571,74.5028571 L94.0842857,68.0742857 L85.6242857,80.2457143 L97.3671429,88.4614286 C96.2343308,90.5807564 95.2740824,92.7878945 94.4957143,95.0614286 C95.0736883,95.4791784 95.6793678,95.8571912 96.3085714,96.1928571 C104.168571,100.812857 113.841429,98.8028571 117.917143,91.71 C121.992857,84.6171429 118.924286,75.1242857 111.06,70.5042857 C110.94,70.4442857 110.661429,70.23 110.528571,70.1571429 Z" id="Path" fill="#9B6D5C"></path>
                        <g id="Head-4">
                            <path d="M86.9314286,7.73571429 C92.2704824,11.2165194 93.7791309,18.3651836 90.3019054,23.7065694 C86.8246799,29.0479553 79.6770285,30.5613952 74.3333131,27.0877509 C68.9895977,23.6141065 67.4713669,16.4674712 70.9414286,11.1214286 C74.4267659,5.77791468 81.579435,4.26341224 86.9314286,7.73571429 L86.9314286,7.73571429 Z" id="Path" fill="#9B6D5C"></path>
                            <path d="M81,15.7971429 C101.974286,29.25 108.321429,56.7642857 95.3228571,77.0185714 L95.3228571,77.0185714 C82.3285714,97.2728571 54.6771429,102.972857 33.7028571,89.52 L23.6528571,82.44 C2.67857143,68.9871429 -3.95142857,41.9185714 9.04285714,21.6642857 L9.04285714,21.6642857 C22.0371429,1.40571429 49.4057143,-3.84857143 70.3757143,9.60857143 L81,15.7971429 Z" id="Path" fill="#9B6D5C"></path>
                            <path d="M42.3085714,80.5328571 C47.6428451,84.0149127 49.1473121,91.1603249 45.6699633,96.497668 C42.1926146,101.835011 35.0485323,103.345781 29.7081238,99.8731415 C24.3677152,96.4005023 22.8506444,89.2577554 26.3185714,83.9142857 C29.8053014,78.5722645 36.957691,77.0597383 42.3085714,80.5328571 Z" id="Path" fill="#9B6D5C"></path>
                            <path d="M95.31,77.0185714 C82.3157143,97.2728571 54.6642857,102.972857 33.69,89.52 L31.9542857,88.4014286 C31.71,88.23 31.4614286,88.0671429 31.2128571,87.9128571 L34.0585714,84.0557143 C34.0585714,84.0557143 53.6528571,95.3871429 61.8814286,81.9128571 C64.7871429,77.16 62.5328571,67.0071429 67.6371429,58.8042857 C72.9771429,50.2328571 82.6628571,48.78 85.83,43.83 C94.3371429,30.5442857 75.2914286,17.8671429 75.2914286,17.8671429 L77.5585714,13.6628571 C77.8714286,13.86 78.2057143,14.0485714 78.5571429,14.2242857 L80.9871429,15.7842857 C101.961429,29.25 108.308571,56.7642857 95.31,77.0185714 Z" id="Path" fill="#77564D"></path>
                            <path d="M16.5428571,78.1928571 C5.44285714,70.02 -8.52,47.7385714 6.88285714,21.1928571 C24.2742857,-3.92571429 50.46,-2.13 62.5971429,4.44428571 C66.4971429,6.58714286 77.5971429,13.6585714 77.5971429,13.6585714 L75.33,17.8628571 C75.33,17.8628571 42.21,-5.55428571 34.92,18.7457143 C33.3042857,24.1457143 31.0842857,30.5142857 28.4914286,34.7271429 C25.4783211,39.2946456 21.8661074,43.4373041 17.7514286,47.0442857 C-1.14428571,63.9728571 34.1057143,84.0385714 34.1057143,84.0428571 L31.2514286,87.9 C31.2514286,87.9 20.1171429,80.8242857 16.5428571,78.1928571 Z" id="Path" fill="#4F3934"></path>
                            <path d="M72.1028571,42.6514286 C74.82,43.5085714 77.6742857,42.1071429 78.4671429,39.5357143 C79.26,36.9642857 77.7128571,34.2042857 75,33.3557143 C72.2871429,32.5071429 69.4285714,33.9042857 68.6314286,36.4714286 C67.8342857,39.0385714 69.3857143,41.8071429 72.1028571,42.6514286 Z" id="Path" fill="#000000"></path>
                            <path d="M50.4042857,76.4228571 C53.1214286,77.28 55.9757143,75.8742857 56.7728571,73.3071429 C57.57,70.74 56.0185714,67.9714286 53.3014286,67.1271429 C50.5842857,66.2828571 47.73,67.6757143 46.9328571,70.2428571 C46.1357143,72.81 47.6871429,75.5742857 50.4042857,76.4228571 Z" id="Path" fill="#000000"></path>
                        </g>
                        <path d="M86.4257143,46.9114286 L66.8142857,78.6257143 C66.8142857,78.6257143 81.4885714,79.9585714 87.6385714,69.5785714 C93.7157143,59.34 88.4528571,48.7242857 86.4257143,46.9114286 Z" id="Path" fill="#FFFFFF"></path>
                    </g>
                </g>
                <g id="Unofficial_JavaScript_logo_2" transform="translate(262.795952, 257.732306) rotate(41.000000) translate(-262.795952, -257.732306) translate(155.295952, 150.232306)">
                    <rect id="Rectangle" fill="#F7DF1E" x="0.829620421" y="0.568163597" width="214" height="214"></rect>
                    <path d="M144.247785,167.547375 C148.557354,174.576108 154.164209,179.742497 164.080633,179.742497 C172.411108,179.742497 177.732696,175.583605 177.732696,169.837141 C177.732696,162.950883 172.265079,160.511859 163.095783,156.505617 L158.06965,154.351541 C143.561786,148.177655 133.923837,140.443335 133.923837,124.092713 C133.923837,109.031144 145.412625,97.5653544 163.367465,97.5653544 C176.150143,97.5653544 185.339815,102.009196 191.962085,113.644597 L176.306361,123.685643 C172.859385,117.511757 169.140726,115.079517 163.367465,115.079517 C157.47874,115.079517 153.746497,118.810987 153.746497,123.685643 C153.746497,129.710271 157.482136,132.149295 166.108066,135.880765 L171.134199,138.031449 C188.216258,145.348522 197.860998,152.80807 197.860998,169.57933 C197.860998,187.659998 183.641798,197.565354 164.54589,197.565354 C145.874486,197.565354 133.811768,188.677672 127.909458,177.028701 L144.247785,167.547375 Z M73.2264938,169.287597 C76.3848069,174.884802 79.2578529,179.616984 86.1653893,179.616984 C92.7706784,179.616984 96.937614,177.035486 96.937614,166.997832 L96.937614,98.7119333 L117.042144,98.7119333 L117.042144,167.269211 C117.042144,188.063675 104.836793,197.52804 87.0211902,197.52804 C70.9239817,197.52804 61.6018641,189.206862 56.8609985,179.184473 L73.2264938,169.287597 Z" id="Shape" fill="#000000"></path>
                </g>
                <g id="iconfinder_react_4691292" transform="translate(224.000000, 137.000000)" fill="#000000">
                    <path d="M33.5,23.9883976 C31.3666331,23.9883976 29.3953209,25.1339439 28.3286374,26.9935204 C27.261954,28.8530969 27.261954,31.1441897 28.3286374,33.0037662 C29.3953209,34.8633427 31.3666331,36.0088889 33.5,36.0088889 C35.6333669,36.0088889 37.6046791,34.8633427 38.6713626,33.0037662 C39.738046,31.1441897 39.738046,28.8530969 38.6713626,26.9935204 C37.6046791,25.1339439 35.6333669,23.9883976 33.5,23.9883976 Z M16.7723333,41.9545083 L15.4546667,41.6173276 C5.63358333,39.1193807 0,34.8793336 0,29.9874039 C0,25.0954742 5.63358333,20.8554271 15.4546667,18.3574802 L16.7723333,18.0231094 L17.143625,19.338114 C18.1385249,22.7877885 19.411084,26.1501184 20.9486667,29.391718 L21.230625,29.9902138 L20.9486667,30.5887095 C19.4085197,33.829203 18.1358793,37.1917476 17.143625,40.6423135 L16.7723333,41.9545083 L16.7723333,41.9545083 Z M14.8432917,21.4286343 C7.378375,23.5388234 2.79725,26.7673284 2.79725,29.9874039 C2.79725,33.2046696 7.378375,36.4331746 14.8432917,38.5461736 C15.756235,35.6237489 16.8585146,32.7646969 18.1430417,29.9874039 C16.8570441,27.210742 15.7547266,24.3515914 14.8432917,21.4286343 L14.8432917,21.4286343 Z M50.2276667,41.9545083 L49.856375,40.6366938 C48.8624756,37.1872015 47.5889213,33.8256488 46.0485417,30.5858996 L45.7665833,29.9874039 L46.0485417,29.3889082 C47.5883372,26.1479389 48.8618705,22.7855018 49.856375,19.3353042 L50.2276667,18.0202995 L51.548125,18.3546704 C61.3664167,20.8526173 67,25.0926644 67,29.9874039 C67,34.8821435 61.3664167,39.1193807 51.548125,41.6173276 L50.2276667,41.9545083 L50.2276667,41.9545083 Z M48.8569583,29.9874039 C50.1969583,32.9068267 51.30525,35.7756723 52.1567083,38.5461736 C59.6244167,36.4331746 64.20275,33.2046696 64.20275,29.9874039 C64.20275,26.7673284 59.621625,23.5416332 52.1567083,21.4286343 C51.2449974,24.351494 50.1426868,27.2106264 48.8569583,29.9874039 Z M14.82375,21.4145851 L14.4524583,20.1023903 C11.6915,10.3072914 12.529,3.28831358 16.75,0.838133958 C20.8900417,-1.56708824 27.537,1.27365901 34.5022083,8.46965673 L35.451375,9.45029054 L34.5022083,10.4309244 C32.027274,13.0204906 29.7659933,15.8086381 27.7407917,18.7677167 L27.3639167,19.3100157 L26.707875,19.3662124 C23.1454514,19.6488756 19.6116976,20.2220913 16.1414167,21.0802142 L14.82375,21.4145851 Z M20.11675,2.7853524 C19.3685833,2.7853524 18.7069583,2.94832306 18.148625,3.27145455 C15.3737083,4.8814923 14.882375,10.4786916 16.7946667,18.0315389 C19.7695682,17.365415 22.7844456,16.895175 25.820125,16.6238096 C27.5716845,14.117104 29.4853236,11.7291956 31.548625,9.4755791 C27.193625,5.20743363 23.0703333,2.7853524 20.11675,2.7853524 L20.11675,2.7853524 Z M46.8860417,59.9992945 C46.88325,59.9992945 46.88325,59.9992945 46.8860417,59.9992945 C42.9079167,59.9992945 37.7991667,56.9843372 32.4977917,51.5051511 L31.548625,50.5245173 L32.4977917,49.5438835 C34.9720849,46.953495 37.2324465,44.1643898 39.2564167,41.2042813 L39.6332917,40.6619823 L40.2865417,40.6057856 C43.8508036,40.3246795 47.3864623,39.7523974 50.8585833,38.8945936 L52.17625,38.5602228 L52.5503333,39.8752274 C55.3057083,49.6647066 54.471,56.6864943 50.25,59.133864 C49.2247143,59.717351 48.0637521,60.0160265 46.8860417,59.9992945 L46.8860417,59.9992945 Z M35.451375,50.4992287 C39.806375,54.7673742 43.9296667,57.1894554 46.88325,57.1894554 L46.8860417,57.1894554 C47.6314167,57.1894554 48.2958333,57.0264848 48.851375,56.7033533 C51.6262917,55.0933155 52.1204167,49.4933064 50.2053333,41.9404591 C47.2296638,42.6075063 44.2137976,43.0777551 41.1770833,43.3481884 C39.427647,45.8566259 37.5148817,48.2455463 35.451375,50.4992287 L35.451375,50.4992287 Z M52.17625,21.4145851 L50.8585833,21.0802142 C47.3869135,20.219615 43.8511031,19.6463685 40.2865417,19.3662124 L39.6332917,19.3100157 L39.2564167,18.7677167 C37.2334794,15.8077062 34.9730463,13.0194524 32.4977917,10.4309244 L31.548625,9.45029054 L32.4977917,8.46965673 C39.4602083,1.27646884 46.104375,-1.5642784 50.25,0.838133958 C54.471,3.28831358 55.3085,10.3072914 52.5503333,20.0995804 L52.17625,21.4145851 Z M41.1770833,16.6238096 C44.3651667,16.9160328 47.394125,17.3908956 50.2053333,18.0315389 C52.1204167,10.4786916 51.6262917,4.8814923 48.851375,3.27145455 C46.0932083,1.66703647 40.9090833,4.12564561 35.451375,9.4755791 C37.5137054,11.7292933 39.4264097,14.1171988 41.1770833,16.6238096 Z M20.11675,59.9992945 C18.938096,60.0165262 17.7761062,59.7178342 16.75,59.133864 C12.529,56.6864943 11.6915,49.6675164 14.4524583,39.8752274 L14.8209583,38.5602228 L16.138625,38.8945936 C19.363,39.7122568 22.9195833,40.2882738 26.7050833,40.6057856 L27.361125,40.6619823 L27.7352083,41.2042813 C29.7607219,44.1640021 32.0219777,46.9530586 34.496625,49.5438835 L35.4457917,50.5245173 L34.496625,51.5051511 C29.1980417,56.9843372 24.0892917,59.9992945 20.11675,59.9992945 L20.11675,59.9992945 Z M16.7946667,41.9404591 C14.8795833,49.4933064 15.3737083,55.0933155 18.148625,56.7033533 C20.904,58.2852927 26.0853333,55.8463524 31.548625,50.4992287 C29.4861452,48.2439106 27.5725542,45.8551236 25.820125,43.3481884 C22.7843051,43.0779851 19.7693526,42.6077334 16.7946667,41.9404591 L16.7946667,41.9404591 Z M33.5,43.705038 C31.2024583,43.705038 28.8407083,43.6038838 26.4761667,43.4071951 L25.820125,43.3509983 L25.44325,42.8086994 C24.1057888,40.8744051 22.8484622,38.8852091 21.6745,36.846221 C20.5040212,34.8055994 19.4180618,32.7170338 18.4194167,30.5858996 L18.14025,29.9874039 L18.4194167,29.3889082 C19.4179069,27.2576965 20.5038697,25.1691245 21.6745,23.1285869 C22.83025,21.1167421 24.1004583,19.1105171 25.44325,17.1661085 L25.820125,16.6238096 L26.4761667,16.5676128 C31.1512647,16.1686213 35.851527,16.1686213 40.526625,16.5676128 L41.179875,16.6238096 L41.5539583,17.1661085 C44.2316353,21.0354337 46.5820858,25.1240375 48.5805833,29.3889082 L48.8625417,29.9874039 L48.5805833,30.5858996 C46.5868747,34.8532941 44.2361958,38.9422953 41.5539583,42.8086994 L41.179875,43.3509983 L40.526625,43.4071951 C38.1620833,43.6038838 35.7975417,43.705038 33.5,43.705038 L33.5,43.705038 Z M27.3667083,40.6591725 C31.498375,40.9710646 35.501625,40.9710646 39.6360833,40.6591725 C41.9443146,37.262786 43.9936749,33.6953284 45.7665833,29.9874039 C43.9968184,26.2772415 41.946349,22.7094778 39.6332917,19.3156353 C35.5503017,19.0037382 31.4496983,19.0037382 27.3667083,19.3156353 C25.0526408,22.7088362 23.0021253,26.2766799 21.2334167,29.9874039 C23.0082407,33.694874 25.058492,37.2622582 27.3667083,40.6591725 L27.3667083,40.6591725 Z" id="Shape"></path>
                </g>
            </g>
        </g>
    </g>
</svg>